# xmcd
#
# Track frame offsets:
#	150
#	22325
#	44775
#	62767
#	82642
#	99315
#	122742
#	140965
#	159002
#	176342
#
# Disc length: 2610
#
# Revision: 4
# Processed by: cddbd v1.5.1PL0 Copyright (c) Steve Scherf et al.
# Submitted via: FreeRIP 2.30 
# Normalized: r2:TSWAP
#
DISCID=800a300a
DTITLE=Various Artist - ConGRADulations! (Class of '95)
DYEAR=1995
DGENRE=Christian Rock
TTITLE0=WorldWide Message Tribe - On My Way to Zion (GRAD REMIX)
TTITLE1=DC Talk - Lean On Me
TTITLE2=PFR - Spinnin' Round
TTITLE3=Geoff Moore and The Distance - Life Together
TTITLE4=Newsboys - Shine
TTITLE5=Michael W. Smith - Pursuit of the Dream
TTITLE6=Charlie Peacock - Aim a Little Higher
TTITLE7=Petra - Destiny
TTITLE8=Sixpence None The Richer - Spotlight
TTITLE9=Audio Adrenaline - My World View
EXTD=
EXTT0=
EXTT1=
EXTT2=
EXTT3=
EXTT4=
EXTT5=
EXTT6=
EXTT7=
EXTT8=
EXTT9=
PLAYORDER=
